<svg width="1284" height="758" viewBox="0 0 1284 758" fill="none" xmlns="http://www.w3.org/2000/svg">
<g style="mix-blend-mode:overlay">
<path fill-rule="evenodd" clip-rule="evenodd" d="M555.161 307.033C532.592 320.383 520.159 338.211 520.159 357.2C520.159 376.757 533.174 395.18 556.767 409.125C604.923 437.581 682.57 438.006 729.812 410.088C752.38 396.767 764.814 378.94 764.814 359.921C764.814 340.393 751.799 321.942 728.206 307.997C703.837 293.599 671.909 286.371 640.202 286.371C609.243 286.371 578.505 293.259 555.161 307.033ZM643.636 431.062C610.904 430.892 580 423.183 556.629 409.38C544.694 402.322 535.417 394.103 529.103 384.92C522.983 376.077 519.882 366.752 519.882 357.2C519.882 338.097 532.371 320.184 555.022 306.807C577.951 293.259 608.606 285.889 641.337 286.06C674.069 286.258 704.972 293.939 728.344 307.77C740.307 314.828 749.556 323.047 755.897 332.202C761.989 341.045 765.091 350.37 765.091 359.921C765.091 379.053 752.602 396.937 729.95 410.344C707.298 423.721 677.115 431.091 644.799 431.091C644.411 431.091 644.023 431.081 643.636 431.062Z" fill="white"/>
<path opacity="0.9" fill-rule="evenodd" clip-rule="evenodd" d="M741.719 300.912C727.984 292.777 712.034 286.485 694.561 282.234C677.752 278.124 659.697 275.941 641.171 275.828C640.728 275.828 640.276 275.828 639.814 275.828C621.759 275.828 604.258 277.812 587.976 281.638C570.641 285.72 554.857 291.842 541.398 299.806C528.079 307.657 517.805 316.869 510.91 326.959C504.264 336.737 500.803 347.224 500.803 358.051C500.803 363.521 501.689 368.963 503.433 374.292C505.233 379.677 507.892 384.949 511.436 390.079C518.719 400.679 529.436 410.174 543.254 418.337C556.989 426.443 572.967 432.735 590.413 437.015C607.249 441.124 625.276 443.307 643.802 443.42C644.263 443.42 644.716 443.42 645.159 443.42C663.214 443.42 680.715 441.436 697.025 437.582C714.332 433.529 730.117 427.406 743.575 419.442C756.894 411.591 767.168 402.38 774.063 392.261C780.737 382.511 784.198 372.024 784.198 361.197C784.198 355.727 783.312 350.285 781.54 344.957C779.768 339.572 777.081 334.271 773.565 329.141C766.254 318.569 755.537 309.074 741.719 300.912ZM741.581 301.138C768.885 317.294 783.894 338.608 783.894 361.197C783.894 383.163 769.549 403.768 743.436 419.187C716.465 435.144 680.936 443.08 645.159 443.08C608.495 443.08 571.582 434.747 543.392 418.082C516.116 401.954 501.079 380.641 501.079 358.051C501.079 336.057 515.451 315.452 541.537 300.033C568.508 284.104 604.064 276.14 639.842 276.14C676.506 276.14 713.391 284.501 741.581 301.138Z" fill="white"/>
<path opacity="0.8" fill-rule="evenodd" clip-rule="evenodd" d="M755.094 294.052C739.531 284.841 721.449 277.726 701.594 272.852C682.431 268.175 661.995 265.709 641.005 265.596C640.488 265.596 639.971 265.596 639.454 265.596C618.99 265.596 599.163 267.835 580.609 272.2C560.921 276.82 543.032 283.764 527.774 292.777C512.682 301.705 501.024 312.135 493.187 323.614C485.6 334.724 481.695 346.628 481.695 358.901C481.695 365.08 482.692 371.258 484.713 377.324C486.707 383.418 489.753 389.426 493.769 395.237C502.048 407.254 514.205 418.024 529.878 427.292C545.441 436.504 563.551 443.618 583.378 448.465C602.541 453.17 623.005 455.635 643.995 455.749C644.512 455.749 645.02 455.749 645.518 455.749C665.982 455.749 685.837 453.51 704.363 449.145C724.079 444.497 741.94 437.581 757.226 428.54C772.29 419.64 783.949 409.21 791.785 397.702C799.373 386.62 803.277 374.716 803.277 362.444C803.277 356.237 802.28 350.086 800.287 344.021C798.265 337.927 795.219 331.918 791.232 326.108C782.924 314.091 770.795 303.32 755.094 294.052ZM754.956 294.307C785.942 312.617 803 336.822 803 362.444C803 387.414 786.69 410.797 757.06 428.284C726.461 446.396 686.114 455.409 645.518 455.409C603.898 455.409 562.001 445.942 530.045 427.037C499.058 408.728 481.972 384.523 481.972 358.901C481.972 333.931 498.282 310.548 527.912 293.032C558.539 274.949 598.886 265.936 639.482 265.936C681.102 265.936 722.972 275.402 754.956 294.307Z" fill="white"/>
<path opacity="0.7" fill-rule="evenodd" clip-rule="evenodd" d="M768.469 287.193C751.079 276.905 730.864 268.941 708.628 263.499C687.139 258.255 664.266 255.478 640.811 255.364C640.239 255.345 639.666 255.336 639.094 255.336C616.249 255.336 594.04 257.858 573.271 262.733C551.173 267.949 531.208 275.686 514.122 285.776C497.286 295.753 484.243 307.402 475.465 320.27C466.963 332.712 462.588 346.034 462.588 359.723C462.588 366.667 463.723 373.555 465.966 380.329C468.209 387.188 471.615 393.905 476.102 400.395C485.351 413.83 498.947 425.876 516.504 436.249C533.894 446.538 554.109 454.502 576.373 459.944C597.834 465.187 620.707 467.965 644.162 468.078C644.734 468.078 645.306 468.078 645.879 468.078C668.752 468.078 690.933 465.584 711.729 460.681C733.799 455.494 753.793 447.757 770.851 437.666C787.715 427.69 800.73 416.041 809.536 403.173C818.009 390.73 822.385 377.409 822.385 363.72C822.385 356.776 821.249 349.86 819.034 343.114C816.763 336.255 813.357 329.538 808.899 323.047C799.622 309.613 786.026 297.567 768.469 287.193ZM768.331 287.449C803.001 307.941 822.08 335.008 822.08 363.72C822.08 391.637 803.831 417.798 770.712 437.383C736.43 457.648 691.293 467.738 645.879 467.738C599.301 467.738 552.447 457.138 516.67 435.994C481.972 415.502 462.893 388.406 462.893 359.723C462.893 331.805 481.141 305.616 514.288 286.031C548.543 265.794 593.68 255.704 639.122 255.704C685.671 255.704 732.553 266.305 768.331 287.449Z" fill="white"/>
<path opacity="0.6" fill-rule="evenodd" clip-rule="evenodd" d="M781.845 280.334C762.627 268.968 740.279 260.154 715.634 254.117C691.847 248.306 666.564 245.245 640.645 245.104C639.999 245.104 639.362 245.104 638.734 245.104C613.48 245.104 588.945 247.881 565.906 253.295C541.454 259.048 519.356 267.636 500.498 278.775C481.862 289.772 467.462 302.668 457.715 316.925C448.327 330.699 443.481 345.409 443.481 360.573C443.481 368.226 444.755 375.878 447.219 383.361C449.712 390.928 453.478 398.354 458.435 405.525C468.68 420.405 483.717 433.755 503.129 445.205C522.347 456.571 544.694 465.385 569.339 471.422C593.154 477.233 618.437 480.294 644.356 480.435C644.984 480.435 645.62 480.435 646.267 480.435C671.494 480.435 696.028 477.658 719.068 472.244C743.547 466.491 765.617 457.903 784.475 446.764C803.112 435.739 817.511 422.871 827.259 408.614C836.674 394.811 841.492 380.13 841.492 364.966C841.492 357.313 840.246 349.661 837.754 342.178C835.262 334.611 831.496 327.157 826.566 320.014C816.293 305.134 801.256 291.784 781.845 280.334ZM781.706 280.589C820.059 303.263 841.188 333.222 841.188 364.966C841.188 395.888 821 424.826 784.337 446.481C746.427 468.9 696.471 480.067 646.239 480.067C594.705 480.067 542.866 468.333 503.295 444.95C464.914 422.276 443.786 392.317 443.786 360.573C443.786 329.651 464.001 300.712 500.664 279.03C538.574 256.639 588.502 245.472 638.762 245.472C690.268 245.472 742.107 257.206 781.706 280.589Z" fill="white"/>
<path opacity="0.6" fill-rule="evenodd" clip-rule="evenodd" d="M795.219 273.475C774.173 261.033 749.722 251.368 722.667 244.764C696.526 238.387 668.834 235.042 640.451 234.872C639.768 234.872 639.075 234.872 638.374 234.872C610.71 234.872 583.849 237.905 558.567 243.857C531.706 250.149 507.531 259.559 486.873 271.775C466.464 283.82 450.68 297.935 439.991 313.581C429.662 328.716 424.401 344.815 424.401 361.395C424.401 369.785 425.758 378.174 428.471 386.394C431.213 394.67 435.339 402.833 440.767 410.684C451.982 426.981 468.486 441.606 489.753 454.162C510.799 466.604 535.278 476.269 562.333 482.873C588.446 489.25 616.137 492.595 644.521 492.765C645.223 492.765 645.924 492.765 646.626 492.765C674.262 492.765 701.123 489.732 726.433 483.78C753.266 477.488 777.441 468.078 798.099 455.862C818.507 443.817 834.292 429.702 844.981 414.056C855.31 398.921 860.599 382.823 860.599 366.242C860.599 357.852 859.214 349.463 856.5 341.243C853.759 332.967 849.633 324.804 844.233 316.953C832.99 300.656 816.514 286.031 795.219 273.475ZM795.08 273.73C837.116 298.587 860.266 331.437 860.266 366.242C860.266 400.112 838.141 431.856 797.96 455.607C756.395 480.152 701.677 492.397 646.57 492.397C590.135 492.397 533.284 479.529 489.919 453.907C447.856 429.05 424.705 396.2 424.705 361.395C424.705 327.525 446.831 295.781 487.039 272.03C528.577 247.485 583.323 235.241 638.401 235.241C694.865 235.241 751.688 248.108 795.08 273.73Z" fill="white"/>
<path opacity="0.5" fill-rule="evenodd" clip-rule="evenodd" d="M808.622 266.617C785.721 253.097 759.137 242.582 729.673 235.383C701.234 228.439 671.133 224.811 640.285 224.641C639.528 224.641 638.771 224.641 638.014 224.641C607.969 224.641 578.754 227.928 551.201 234.391C521.959 241.278 495.707 251.481 473.249 264.746C451.068 277.869 433.9 293.202 422.269 310.236C411.026 326.704 405.294 344.22 405.294 362.246C405.294 371.344 406.79 380.47 409.753 389.398C412.716 398.44 417.202 407.311 423.1 415.842C435.312 433.557 453.228 449.457 476.379 463.119C499.252 476.638 525.863 487.153 555.3 494.353C583.739 501.297 613.867 504.925 644.716 505.095C645.473 505.095 646.229 505.095 646.986 505.095C677.032 505.095 706.246 501.807 733.772 495.345C763.014 488.457 789.293 478.254 811.751 464.989C833.932 451.866 851.073 436.533 862.731 419.499C873.947 403.031 879.679 385.515 879.679 367.489C879.679 358.391 878.183 349.265 875.248 340.337C872.257 331.295 867.771 322.424 861.901 313.893C849.661 296.207 831.745 280.278 808.622 266.617ZM808.456 266.9C854.175 293.911 879.374 329.651 879.374 367.489C879.374 404.335 855.282 438.857 811.585 464.706C766.392 491.405 706.856 504.726 646.931 504.726C585.539 504.726 523.731 490.725 476.545 462.835C430.798 435.824 405.627 400.084 405.627 362.246C405.627 325.4 429.691 290.878 473.416 265.029C518.58 238.33 578.145 225.009 638.042 225.009C699.462 225.009 761.27 239.011 808.456 266.9Z" fill="white"/>
<path opacity="0.5" fill-rule="evenodd" clip-rule="evenodd" d="M891.651 233.862C857.376 213.615 817.588 197.868 773.491 187.087C730.926 176.688 685.875 171.255 639.705 171C638.572 171 637.439 171 636.307 171C591.338 171 547.614 175.924 506.375 185.601C462.609 195.916 423.319 211.196 389.707 231.061C356.509 250.713 330.813 273.676 313.406 299.186C296.579 323.847 288 350.078 288 377.074C288 390.699 290.238 404.366 294.673 417.737C299.107 431.277 305.822 444.562 314.649 457.339C332.927 483.867 359.742 507.679 394.39 528.138C428.624 548.385 468.453 564.132 512.509 574.913C555.074 585.312 600.166 590.745 646.336 591C647.469 591 648.602 591 649.735 591C694.703 591 738.428 586.076 779.625 576.399C823.391 566.084 862.722 550.804 896.335 530.939C929.532 511.287 955.187 488.324 972.635 462.814C989.421 438.153 998 411.922 998 384.926C998 371.301 995.762 357.634 991.369 344.263C986.893 330.723 980.179 317.438 971.392 304.661C953.073 278.175 926.258 254.321 891.651 233.862ZM891.403 234.286C959.829 274.737 997.544 328.261 997.544 384.926C997.544 440.106 961.487 491.804 896.086 530.515C828.447 570.499 739.34 590.448 649.652 590.448C557.768 590.448 465.262 569.48 394.639 527.714C326.171 487.263 288.497 433.739 288.497 377.074C288.497 321.894 324.513 270.196 389.956 231.485C457.553 191.501 546.702 171.552 636.348 171.552C728.274 171.552 820.78 192.52 891.403 234.286Z" fill="url(#paint0_linear_995_38453)"/>
<path opacity="0.5" fill-rule="evenodd" clip-rule="evenodd" d="M983.557 173.911C936.682 146.241 882.268 124.72 821.96 109.985C763.748 95.7732 702.136 88.3481 638.994 88C637.445 88 635.895 88 634.346 88C572.847 88 513.049 94.729 456.652 107.955C396.797 122.051 343.063 142.935 297.095 170.083C251.694 196.941 216.551 228.324 192.745 263.187C169.733 296.891 158 332.74 158 369.634C158 388.255 161.061 406.934 167.126 425.207C173.19 443.712 182.373 461.869 194.446 479.329C219.442 515.585 256.115 548.128 303.5 576.089C350.318 603.759 404.789 625.28 465.04 640.015C523.252 654.227 584.92 661.652 648.063 662C649.612 662 651.161 662 652.711 662C714.209 662 774.008 655.271 830.348 642.045C890.203 627.949 943.994 607.065 989.962 579.917C1035.36 553.059 1070.45 521.676 1094.31 486.813C1117.27 453.109 1129 417.26 1129 380.366C1129 361.745 1125.94 343.066 1119.93 324.793C1113.81 306.288 1104.63 288.131 1092.61 270.671C1067.56 234.473 1030.89 201.872 983.557 173.911ZM983.217 174.492C1076.8 229.774 1128.38 302.924 1128.38 380.366C1128.38 455.778 1079.06 526.433 989.622 579.337C897.119 633.982 775.255 661.246 652.597 661.246C526.936 661.246 400.424 632.589 303.84 575.508C210.203 520.226 158.68 447.076 158.68 369.634C158.68 294.222 207.936 223.567 297.435 170.663C389.881 116.018 511.802 88.7541 634.403 88.7541C760.121 88.7541 886.633 117.411 983.217 174.492Z" fill="url(#paint1_linear_995_38453)"/>
<path opacity="0.4" fill-rule="evenodd" clip-rule="evenodd" d="M821.997 259.758C797.269 245.161 768.553 233.796 736.707 226.001C705.942 218.491 673.404 214.579 640.091 214.409C639.279 214.39 638.467 214.381 637.654 214.381C605.2 214.381 573.632 217.952 543.863 224.953C512.239 232.379 483.855 243.432 459.625 257.746C435.644 271.917 417.119 288.469 404.547 306.892C392.39 324.692 386.187 343.625 386.187 363.097C386.187 372.903 387.821 382.795 391.006 392.432C394.218 402.182 399.064 411.79 405.433 420.973C418.614 440.133 437.998 457.309 463.004 472.075C487.705 486.7 516.421 498.038 548.294 505.832C579.059 513.343 611.569 517.254 644.882 517.424C645.694 517.443 646.516 517.453 647.347 517.453C679.773 517.453 711.342 513.881 741.138 506.881C772.734 499.455 801.118 488.429 825.376 474.088C849.329 459.916 867.855 443.364 880.454 424.941C892.611 407.142 898.786 388.208 898.786 368.765C898.786 358.93 897.18 349.067 893.995 339.402C890.756 329.652 885.91 320.044 879.568 310.86C866.359 291.729 846.975 274.525 821.997 259.758ZM821.831 260.041C871.233 289.235 898.454 327.866 898.454 368.765C898.454 408.587 872.451 445.886 825.21 473.804C776.362 502.657 712.034 517.027 647.291 517.027C580.942 517.056 514.15 501.921 463.17 471.792C413.74 442.599 386.52 403.996 386.52 363.097C386.52 323.275 412.55 285.947 459.764 258.029C508.612 229.176 572.939 214.806 637.682 214.806C704.059 214.806 770.823 229.913 821.831 260.041Z" fill="white"/>
<path opacity="0.4" fill-rule="evenodd" clip-rule="evenodd" d="M911.101 222.975C874.1 201.109 831.132 184.084 783.482 172.408C737.448 161.156 688.762 155.297 638.916 155.042C637.7 155.014 636.485 155 635.27 155C586.708 155 539.472 160.35 494.93 170.837C447.611 181.961 405.141 198.519 368.885 219.96C333.003 241.189 305.283 265.984 286.471 293.582C268.281 320.245 259 348.607 259 377.775C259 392.466 261.445 407.284 266.21 421.719C271.016 436.325 278.267 450.718 287.797 464.474C307.52 493.175 336.525 518.905 373.94 541.025C410.9 562.933 453.868 579.917 501.559 591.592C547.594 602.844 596.238 608.703 646.084 608.958C647.3 608.986 648.529 609 649.772 609C698.292 609 745.528 603.65 790.112 593.163C837.389 582.039 879.859 565.523 916.156 544.04C951.997 522.811 979.717 498.016 998.57 470.418C1016.76 443.755 1026 415.393 1026 386.267C1026 371.534 1023.6 356.759 1018.83 342.281C1013.98 327.675 1006.73 313.282 997.244 299.526C977.48 270.867 948.475 245.095 911.101 222.975ZM910.853 223.399C984.772 267.131 1025.5 325.001 1025.5 386.267C1025.5 445.92 986.595 501.794 915.908 543.615C842.817 586.837 746.564 608.363 649.689 608.363C550.411 608.406 450.47 585.733 374.189 540.601C300.228 496.869 259.497 439.042 259.497 377.775C259.497 318.122 298.446 262.206 369.092 220.385C442.183 177.163 538.436 155.637 635.311 155.637C734.63 155.637 834.53 178.267 910.853 223.399Z" fill="url(#paint2_linear_995_38453)"/>
<path opacity="0.4" fill-rule="evenodd" clip-rule="evenodd" d="M1010.56 158.128C959.855 128.171 900.978 104.846 835.684 88.8492C772.605 73.4345 705.892 65.4072 637.589 65.0582C635.923 65.0194 634.258 65 632.592 65C566.05 65 501.324 72.3293 440.289 86.697C375.449 101.937 317.253 124.623 267.573 153.998C218.404 183.083 180.42 217.053 154.643 254.863C129.718 291.393 117 330.25 117 370.212C117 390.339 120.35 410.64 126.879 430.417C133.465 450.427 143.401 470.146 156.46 488.993C183.486 528.315 223.23 563.566 274.5 593.872C325.145 623.887 384.022 647.154 449.373 663.151C512.452 678.566 579.108 686.593 647.411 686.942C649.077 686.981 650.761 687 652.464 687C718.95 687 783.676 679.671 844.768 665.303C909.551 650.063 967.747 627.435 1017.48 598.002C1066.6 568.917 1104.58 534.946 1130.41 497.137C1155.34 460.607 1168 421.75 1168 381.846C1168 361.661 1164.71 341.419 1158.18 321.583C1151.53 301.573 1141.6 281.854 1128.6 263.007C1101.51 223.743 1061.77 188.434 1010.56 158.128ZM1010.22 158.71C1111.51 218.624 1167.32 297.908 1167.32 381.846C1167.32 463.573 1114.01 540.124 1017.14 597.42C916.989 656.636 785.096 686.127 652.351 686.127C516.313 686.186 379.367 655.123 274.84 593.29C173.493 533.376 117.681 454.15 117.681 370.212C117.681 288.485 171.052 211.876 267.857 154.58C368.011 95.3642 499.904 65.8725 632.649 65.8725C768.744 65.8725 905.633 96.8765 1010.22 158.71Z" fill="url(#paint3_linear_995_38453)"/>
<path opacity="0.3" fill-rule="evenodd" clip-rule="evenodd" d="M835.372 252.898C808.815 237.196 777.967 225.009 743.713 216.648C710.621 208.57 675.702 204.347 639.924 204.148C639.038 204.148 638.161 204.148 637.294 204.148C602.43 204.148 568.536 207.975 536.496 215.514C502.491 223.478 472.03 235.354 445.973 250.744C420.247 265.965 400.337 283.736 386.796 303.547C373.725 322.707 367.079 343.029 367.079 363.918C367.079 374.49 368.824 385.09 372.258 395.464C375.719 405.922 380.925 416.239 387.765 426.131C401.943 446.708 422.739 465.159 449.628 481.031C476.156 496.733 507.005 508.921 541.259 517.282C574.351 525.36 609.298 529.583 645.047 529.781C645.934 529.781 646.82 529.781 647.706 529.781C682.542 529.781 716.436 525.955 748.475 518.444C782.481 510.451 812.941 498.576 838.999 483.185C864.752 467.993 884.663 450.194 898.176 430.382C911.247 411.251 917.893 390.929 917.893 370.012C917.893 359.468 916.148 348.839 912.714 338.466C909.253 328.007 904.047 317.69 897.235 307.799C883.029 287.25 862.232 268.77 835.372 252.898ZM835.206 253.182C888.318 284.586 917.56 326.052 917.56 370.012C917.56 412.81 889.592 452.887 838.833 482.902C786.358 513.909 717.212 529.356 647.65 529.356C576.345 529.356 504.596 513.115 449.794 480.748C396.682 449.372 367.439 407.878 367.439 363.918C367.439 321.12 395.38 281.043 446.139 251.028C498.614 220.021 567.76 204.574 637.321 204.574C708.627 204.574 780.404 220.814 835.206 253.182Z" fill="white"/>
<path opacity="0.3" fill-rule="evenodd" clip-rule="evenodd" d="M931.401 213.058C891.626 189.526 845.422 171.262 794.116 158.732C744.552 146.626 692.25 140.297 638.663 140C637.336 140 636.023 140 634.723 140C582.505 140 531.738 145.734 483.75 157.033C432.818 168.968 387.194 186.765 348.165 209.83C309.634 232.639 279.813 259.271 259.531 288.961C239.954 317.675 230 348.13 230 379.434C230 395.277 232.613 411.163 237.756 426.709C242.941 442.382 250.738 457.844 260.983 472.667C282.218 503.505 313.367 531.156 353.64 554.942C393.374 578.474 439.578 596.738 490.884 609.268C540.448 621.374 592.791 627.703 646.337 628C647.664 628 648.991 628 650.318 628C702.495 628 753.262 622.266 801.25 611.01C852.182 599.032 897.806 581.235 936.835 558.17C975.407 535.404 1005.23 508.729 1025.47 479.039C1045.05 450.368 1055 419.913 1055 388.566C1055 372.765 1052.39 356.837 1047.24 341.291C1042.06 325.618 1034.26 310.157 1024.06 295.333C1002.78 264.538 971.633 236.844 931.401 213.058ZM931.153 213.482C1010.7 260.545 1054.5 322.687 1054.5 388.566C1054.5 452.704 1012.61 512.764 936.586 557.746C857.989 604.214 754.423 627.363 650.235 627.363C543.434 627.363 435.97 603.024 353.889 554.518C274.338 507.497 230.539 445.313 230.539 379.434C230.539 315.296 272.388 255.236 348.414 210.254C427.011 163.786 530.577 140.637 634.765 140.637C741.566 140.637 849.071 164.976 931.153 213.482Z" fill="url(#paint4_linear_995_38453)"/>
<path opacity="0.3" fill-rule="evenodd" clip-rule="evenodd" d="M1037.86 145.005C983.425 112.794 920.195 87.793 849.984 70.6409C782.156 54.0703 710.583 45.407 637.25 45C635.433 45 633.636 45 631.858 45C560.398 45 490.924 52.8493 425.254 68.3152C355.553 84.6533 293.118 109.015 239.707 140.586C186.978 171.809 146.168 208.264 118.413 248.906C91.6222 288.21 77.9999 329.899 77.9999 372.75C77.9999 394.437 81.5758 416.182 88.6139 437.462C95.7088 458.917 106.38 480.081 120.399 500.373C149.46 542.584 192.086 580.435 247.199 612.995C301.575 645.206 364.805 670.207 435.016 687.359C502.844 703.93 574.474 712.593 647.75 713C649.566 713 651.383 713 653.199 713C724.602 713 794.076 705.151 859.746 689.743C929.447 673.347 991.882 648.985 1045.29 617.414C1098.08 586.249 1138.89 549.736 1166.59 509.094C1193.38 469.848 1207 428.16 1207 385.25C1207 363.621 1203.42 341.818 1196.39 320.538C1189.29 299.083 1178.62 277.919 1164.66 257.627C1135.54 215.474 1092.91 177.565 1037.86 145.005ZM1037.52 145.587C1146.38 210.009 1206.32 295.071 1206.32 385.25C1206.32 473.046 1148.99 555.259 1044.95 616.832C937.393 680.44 795.665 712.128 653.086 712.128C506.93 712.128 359.867 678.812 247.54 612.413C138.676 548.05 78.7377 462.929 78.7377 372.75C78.7377 284.954 136.008 202.741 240.048 141.168C347.607 77.5599 489.335 45.8721 631.914 45.8721C778.07 45.8721 925.19 79.1878 1037.52 145.587Z" fill="url(#paint5_linear_995_38453)"/>
<path opacity="0.3" fill-rule="evenodd" clip-rule="evenodd" d="M861.215 237.392C831.034 219.551 795.974 205.703 757.044 196.202C719.436 187.024 679.75 182.225 639.089 182C638.082 182 637.085 182 636.099 182C596.476 182 557.955 186.348 521.543 194.914C482.896 203.964 448.277 217.457 418.662 234.945C389.425 252.238 366.797 272.431 351.408 294.942C336.553 316.712 329 339.803 329 363.538C329 375.55 330.983 387.595 334.885 399.382C338.819 411.265 344.736 422.988 352.509 434.227C368.623 457.608 392.258 478.573 422.817 496.608C452.966 514.449 488.026 528.297 526.956 537.798C564.564 546.976 604.281 551.775 644.911 552C645.918 552 646.925 552 647.932 552C687.524 552 726.045 547.652 762.457 539.118C801.104 530.036 835.723 516.543 865.338 499.055C894.606 481.794 917.234 461.569 932.592 439.058C947.447 417.32 955 394.229 955 370.462C955 358.482 953.017 346.405 949.115 334.618C945.181 322.735 939.264 311.012 931.522 299.773C915.377 276.424 891.742 255.427 861.215 237.392ZM861.026 237.714C921.388 273.397 954.622 320.513 954.622 370.462C954.622 419.091 922.836 464.629 865.149 498.733C805.51 533.965 726.926 551.517 647.869 551.517C566.83 551.517 485.288 533.064 423.005 496.286C362.643 460.635 329.409 413.488 329.409 363.538C329.409 314.909 361.164 269.371 418.851 235.267C478.49 200.035 557.074 182.483 636.131 182.483C717.17 182.483 798.744 200.936 861.026 237.714Z" fill="white"/>
<path opacity="0.3" fill-rule="evenodd" clip-rule="evenodd" d="M970.472 189.938C925.249 163.225 872.716 142.49 814.382 128.265C758.03 114.522 698.565 107.338 637.638 107C636.129 107 634.636 107 633.158 107C573.787 107 516.067 113.51 461.507 126.336C403.598 139.886 351.725 160.09 307.35 186.274C263.541 212.168 229.636 242.402 206.576 276.108C184.318 308.704 173 343.278 173 378.816C173 396.802 175.971 414.837 181.818 432.485C187.713 450.278 196.578 467.831 208.226 484.659C232.371 519.667 267.785 551.058 313.575 578.062C358.751 604.775 411.284 625.51 469.618 639.735C525.97 653.478 585.482 660.662 646.362 661C647.871 661 649.38 661 650.889 661C710.213 661 767.933 654.49 822.493 641.712C880.402 628.114 932.275 607.91 976.65 581.726C1020.51 555.88 1054.41 525.598 1077.42 491.892C1099.68 459.344 1111 424.77 1111 389.184C1111 371.246 1108.03 353.163 1102.18 335.515C1096.29 317.722 1087.42 300.169 1075.82 283.341C1051.63 248.381 1016.21 216.942 970.472 189.938ZM970.189 190.421C1060.64 243.848 1110.43 314.394 1110.43 389.184C1110.43 461.996 1062.81 530.179 976.367 581.244C887.004 633.997 769.253 660.277 650.795 660.277C529.365 660.277 407.182 632.647 313.858 577.579C223.411 524.2 173.613 453.606 173.613 378.816C173.613 306.004 221.194 237.821 307.633 186.756C396.996 134.003 514.747 107.723 633.205 107.723C754.634 107.723 876.865 135.353 970.189 190.421Z" fill="url(#paint6_linear_995_38453)"/>
<path opacity="0.3" fill-rule="evenodd" clip-rule="evenodd" d="M1091.64 113.479C1029.73 76.9282 957.82 48.5585 877.969 29.0955C800.83 10.2923 719.43 0.461833 636.029 0C633.963 0 631.919 0 629.896 0C548.626 0 469.614 8.9068 394.928 26.4565C315.658 44.9958 244.651 72.6398 183.908 108.465C123.939 143.894 77.5267 185.261 45.9609 231.378C15.4924 275.978 -6.09604e-06 323.283 -6.09604e-06 371.908C-6.09604e-06 396.517 4.06673 421.192 12.0712 445.339C20.1401 469.684 32.2759 493.7 48.2202 516.725C81.2707 564.624 129.749 607.574 192.429 644.521C254.269 681.072 326.18 709.442 406.031 728.905C483.17 747.708 564.635 757.538 647.971 758C650.037 758 652.102 758 654.168 758C735.374 758 814.386 749.093 889.072 731.61C968.342 713.004 1039.35 685.36 1100.09 649.535C1160.13 614.172 1206.54 572.739 1238.04 526.622C1268.51 482.088 1284 434.783 1284 386.092C1284 361.549 1279.93 336.808 1271.93 312.661C1263.86 288.316 1251.72 264.3 1235.84 241.275C1202.73 193.442 1154.25 150.426 1091.64 113.479ZM1091.25 114.139C1215.06 187.24 1283.23 283.763 1283.23 386.092C1283.23 485.716 1218.03 579.007 1099.7 648.875C977.379 721.053 816.193 757.01 654.039 757.01C487.818 757.01 320.564 719.206 192.816 643.861C69.0058 570.826 0.839041 474.237 0.839041 371.908C0.839041 272.284 65.9719 178.993 184.295 109.125C306.621 36.9467 467.807 0.989642 629.961 0.989642C796.182 0.989642 963.5 38.794 1091.25 114.139Z" fill="url(#paint7_linear_995_38453)"/>
<path opacity="0.2" fill-rule="evenodd" clip-rule="evenodd" d="M648.066 542.111C685.311 542.111 721.559 538.029 755.814 529.98C792.201 521.42 824.794 508.751 852.624 492.284C880.149 476.043 901.444 457.053 915.899 435.824C929.883 415.332 937 393.622 937 371.287C937 360.007 935.117 348.641 931.462 337.559C927.751 326.364 922.185 315.31 914.902 304.738C899.727 282.772 877.463 263.017 848.747 246.04C820.363 229.261 787.41 216.223 750.746 207.267C715.329 198.622 677.973 194.144 639.731 193.917C638.808 193.917 637.876 193.917 636.934 193.917C599.661 193.917 563.441 197.998 529.158 206.048C492.772 214.607 460.206 227.277 432.349 243.744C404.823 259.985 383.556 279.003 369.073 300.203C355.089 320.695 348 342.406 348 364.769C348 376.049 349.855 387.386 353.511 398.497C357.221 409.692 362.787 420.718 370.098 431.29C385.245 453.284 407.509 473.039 436.225 489.988C464.609 506.767 497.59 519.805 534.254 528.761C569.671 537.406 606.999 541.912 645.241 542.111C646.183 542.111 647.125 542.111 648.066 542.111ZM636.962 194.342C713.224 194.342 789.958 211.716 848.581 246.352C905.376 279.91 936.64 324.266 936.64 371.287C936.64 417.033 906.761 459.916 852.458 492C796.354 525.162 722.418 541.686 648.011 541.686C571.748 541.686 495.015 524.34 436.419 489.705C379.624 456.146 348.332 411.761 348.332 364.769C348.332 318.995 378.239 276.112 432.515 244.027C488.646 210.866 562.582 194.342 636.962 194.342Z" fill="white"/>
<path opacity="0.2" fill-rule="evenodd" clip-rule="evenodd" d="M651.335 646C707.108 646 761.388 639.893 812.682 627.849C867.17 615.041 915.976 596.084 957.65 571.444C998.869 547.144 1030.76 518.729 1052.4 486.965C1073.34 456.303 1084 423.817 1084 390.398C1084 373.519 1081.18 356.513 1075.71 339.931C1070.15 323.179 1061.82 306.64 1050.91 290.821C1028.19 257.954 994.846 228.394 951.845 202.991C909.342 177.885 859.996 158.376 805.094 144.975C752.058 132.04 696.119 125.339 638.853 125C637.471 125 636.075 125 634.665 125C578.851 125 524.612 131.107 473.276 143.151C418.789 155.959 370.024 174.916 328.308 199.556C287.09 223.856 255.243 252.313 233.556 284.035C212.616 314.697 202 347.183 202 380.644C202 397.523 204.778 414.487 210.252 431.111C215.808 447.863 224.143 464.36 235.091 480.179C257.773 513.089 291.112 542.648 334.113 568.009C376.617 593.115 426.004 612.624 480.906 626.025C533.942 638.96 589.839 645.703 647.105 646C648.515 646 649.925 646 651.335 646ZM634.707 125.636C748.906 125.636 863.811 151.633 951.596 203.457C1036.64 253.67 1083.46 320.041 1083.46 390.398C1083.46 458.847 1038.72 523.013 957.402 571.02C873.39 620.639 762.673 645.364 651.252 645.364C537.052 645.364 422.148 619.409 334.404 567.585C249.355 517.372 202.498 450.959 202.498 380.644C202.498 312.153 247.282 247.987 328.557 199.98C412.61 150.361 523.327 125.636 634.707 125.636Z" fill="url(#paint8_linear_995_38453)"/>
<path opacity="0.2" fill-rule="evenodd" clip-rule="evenodd" d="M654.906 738C731.23 738 805.512 729.642 875.707 713.16C950.272 695.632 1017.06 669.689 1074.09 635.969C1130.5 602.713 1174.14 563.827 1203.76 520.357C1232.42 478.395 1247 433.938 1247 388.203C1247 365.104 1243.14 341.831 1235.65 319.138C1228.05 296.213 1216.64 273.578 1201.72 251.93C1170.62 206.95 1124.99 166.497 1066.15 131.732C1007.98 97.3737 940.455 70.6761 865.322 52.336C792.744 34.6343 716.192 25.4643 637.825 25C635.934 25 634.023 25 632.094 25C555.713 25 481.489 33.3575 411.236 49.8404C336.671 67.3679 269.937 93.311 212.85 127.031C156.444 160.287 112.863 199.231 83.1842 242.643C54.5272 284.605 40 329.062 40 374.855C40 397.954 43.8021 421.169 51.2927 443.92C58.8967 466.845 70.3027 489.422 85.2838 511.07C116.324 556.108 161.949 596.561 220.795 631.268C278.96 665.626 346.545 692.324 421.678 710.664C494.257 728.366 570.751 737.594 649.118 738C651.047 738 652.977 738 654.906 738ZM632.151 25.8706C788.431 25.8706 945.676 61.448 1065.81 132.371C1182.2 201.088 1246.26 291.918 1246.26 388.203C1246.26 481.877 1185.03 569.689 1073.75 635.388C958.784 703.293 807.271 737.129 654.793 737.129C498.512 737.129 341.268 701.61 221.192 630.687C104.805 561.97 40.681 471.082 40.681 374.855C40.681 281.123 101.967 193.311 213.191 127.612C328.216 59.7069 479.729 25.8706 632.151 25.8706Z" fill="url(#paint9_linear_995_38453)"/>
</g>
<defs>
<linearGradient id="paint0_linear_995_38453" x1="643" y1="171" x2="643" y2="591" gradientUnits="userSpaceOnUse">
<stop stop-color="white"/>
<stop offset="1" stop-color="white" stop-opacity="0"/>
</linearGradient>
<linearGradient id="paint1_linear_995_38453" x1="643.5" y1="88" x2="643.5" y2="662" gradientUnits="userSpaceOnUse">
<stop stop-color="white"/>
<stop offset="1" stop-color="white" stop-opacity="0"/>
</linearGradient>
<linearGradient id="paint2_linear_995_38453" x1="642.5" y1="155" x2="642.5" y2="609" gradientUnits="userSpaceOnUse">
<stop stop-color="white"/>
<stop offset="1" stop-color="white" stop-opacity="0"/>
</linearGradient>
<linearGradient id="paint3_linear_995_38453" x1="642.5" y1="65" x2="642.5" y2="687" gradientUnits="userSpaceOnUse">
<stop stop-color="white"/>
<stop offset="1" stop-color="white" stop-opacity="0"/>
</linearGradient>
<linearGradient id="paint4_linear_995_38453" x1="642.5" y1="140" x2="642.5" y2="628" gradientUnits="userSpaceOnUse">
<stop stop-color="white"/>
<stop offset="1" stop-color="white" stop-opacity="0"/>
</linearGradient>
<linearGradient id="paint5_linear_995_38453" x1="642.5" y1="45" x2="642.5" y2="713" gradientUnits="userSpaceOnUse">
<stop stop-color="white"/>
<stop offset="1" stop-color="white" stop-opacity="0"/>
</linearGradient>
<linearGradient id="paint6_linear_995_38453" x1="642" y1="107" x2="642" y2="661" gradientUnits="userSpaceOnUse">
<stop stop-color="white"/>
<stop offset="1" stop-color="white" stop-opacity="0"/>
</linearGradient>
<linearGradient id="paint7_linear_995_38453" x1="642" y1="0" x2="642" y2="758" gradientUnits="userSpaceOnUse">
<stop stop-color="white"/>
<stop offset="1" stop-color="white" stop-opacity="0"/>
</linearGradient>
<linearGradient id="paint8_linear_995_38453" x1="643" y1="125" x2="643" y2="646" gradientUnits="userSpaceOnUse">
<stop stop-color="white"/>
<stop offset="1" stop-color="white" stop-opacity="0"/>
</linearGradient>
<linearGradient id="paint9_linear_995_38453" x1="643.5" y1="25" x2="643.5" y2="738" gradientUnits="userSpaceOnUse">
<stop stop-color="white"/>
<stop offset="1" stop-color="white" stop-opacity="0"/>
</linearGradient>
</defs>
</svg>
